REM DIRINDEX 1\2\6,1\2\7,1\2\8,1\2\9,1\3\10,1\3\11,1\4\12,1\4\13,1\4\14,1\5\15,1\5\16,1\5\17
REM DIRNAME folder01,folder02,folder03,folder04,folder05,folder06,folder07,folder08,folder09,folder10,folder11,folder12,folder13,folder14,folder15,folder16,folder17
TITLE ""
FILE "1900_3_007 sec02_0101_0115.mp3" MP3
  TRACK 01 AUDIO
    TITLE "0:"
    INDEX 01 00:00:00
  TRACK 02 AUDIO
    TITLE "15:cjc020_6168"
    INDEX 01 00:00:19
  TRACK 03 AUDIO
    TITLE "0:"
    INDEX 01 00:01:62
  TRACK 04 AUDIO
    TITLE "17:cjc020_6169"
    INDEX 01 00:02:63
  TRACK 05 AUDIO
    TITLE "0:"
    INDEX 01 00:04:23
  TRACK 06 AUDIO
    TITLE "16:cjc020_6170"
    INDEX 01 00:04:29
  TRACK 07 AUDIO
    TITLE "0:"
    INDEX 01 00:05:54
  TRACK 08 AUDIO
    TITLE "17:cjc020_6171"
    INDEX 01 00:06:37
  TRACK 09 AUDIO
    TITLE "0:"
    INDEX 01 00:07:62
  TRACK 10 AUDIO
    TITLE "16:cjc020_6172"
    INDEX 01 00:07:64
  TRACK 11 AUDIO
    TITLE "0:"
    INDEX 01 00:09:12
  TRACK 12 AUDIO
    TITLE "17:cjc020_6173"
    INDEX 01 00:09:67
  TRACK 13 AUDIO
    TITLE "0:"
    INDEX 01 00:11:46
  TRACK 14 AUDIO
    TITLE "16:cjc020_6174"
    INDEX 01 00:11:48
  TRACK 15 AUDIO
    TITLE "0:"
    INDEX 01 00:12:65
  TRACK 16 AUDIO
    TITLE "17:cjc020_6175"
    INDEX 01 00:13:45
  TRACK 17 AUDIO
    TITLE "0:"
    INDEX 01 00:14:51
  TRACK 18 AUDIO
    TITLE "16:cjc020_6176"
    INDEX 01 00:14:56
  TRACK 19 AUDIO
    TITLE "0:"
    INDEX 01 00:16:16
  TRACK 20 AUDIO
    TITLE "17:cjc020_6177"
    INDEX 01 00:16:73
  TRACK 21 AUDIO
    TITLE "0:"
    INDEX 01 00:18:29
  TRACK 22 AUDIO
    TITLE "16:cjc020_6178"
    INDEX 01 00:18:33
  TRACK 23 AUDIO
    TITLE "0:"
    INDEX 01 00:19:48
  TRACK 24 AUDIO
    TITLE "17:cjc020_6179"
    INDEX 01 00:20:30
  TRACK 25 AUDIO
    TITLE "0:"
    INDEX 01 00:21:39
  TRACK 26 AUDIO
    TITLE "16:cjc020_6180"
    INDEX 01 00:21:43
  TRACK 27 AUDIO
    TITLE "0:"
    INDEX 01 00:22:58
  TRACK 28 AUDIO
    TITLE "17:cjc020_6181"
    INDEX 01 00:23:44
  TRACK 29 AUDIO
    TITLE "0:"
    INDEX 01 00:24:63
  TRACK 30 AUDIO
    TITLE "16:cjc020_6182"
    INDEX 01 00:24:69
  TRACK 31 AUDIO
    TITLE "0:"
    INDEX 01 00:26:20
  TRACK 32 AUDIO
    TITLE "17:cjc020_6183"
    INDEX 01 00:27:04
  TRACK 33 AUDIO
    TITLE "0:"
    INDEX 01 00:28:33
  TRACK 34 AUDIO
    TITLE "16:cjc020_6184"
    INDEX 01 00:28:35
  TRACK 35 AUDIO
    TITLE "0:"
    INDEX 01 00:29:64
  TRACK 36 AUDIO
    TITLE "17:cjc020_6185"
    INDEX 01 00:30:48
  TRACK 37 AUDIO
    TITLE "0:"
    INDEX 01 00:31:57
  TRACK 38 AUDIO
    TITLE "16:cjc020_6186"
    INDEX 01 00:31:61
  TRACK 39 AUDIO
    TITLE "0:"
    INDEX 01 00:32:72
  TRACK 40 AUDIO
    TITLE "17:cjc020_6187"
    INDEX 01 00:33:56
  TRACK 41 AUDIO
    TITLE "0:"
    INDEX 01 00:34:53
  TRACK 42 AUDIO
    TITLE "16:cjc020_6188"
    INDEX 01 00:34:55
  TRACK 43 AUDIO
    TITLE "0:"
    INDEX 01 00:35:68
  TRACK 44 AUDIO
    TITLE "17:cjc020_6189"
    INDEX 01 00:36:52
  TRACK 45 AUDIO
    TITLE "0:"
    INDEX 01 00:37:50
  TRACK 46 AUDIO
    TITLE "16:cjc020_6190"
    INDEX 01 00:37:57
  TRACK 47 AUDIO
    TITLE "0:"
    INDEX 01 00:38:69
  TRACK 48 AUDIO
    TITLE "17:cjc020_6191"
    INDEX 01 00:39:54
  TRACK 49 AUDIO
    TITLE "0:"
    INDEX 01 00:41:14
  TRACK 50 AUDIO
    TITLE "16:cjc020_6192"
    INDEX 01 00:41:18
  TRACK 51 AUDIO
    TITLE "0:"
    INDEX 01 00:42:51
  TRACK 52 AUDIO
    TITLE "17:cjc020_6193"
    INDEX 01 00:43:35
  TRACK 53 AUDIO
    TITLE "0:"
    INDEX 01 00:44:32
  TRACK 54 AUDIO
    TITLE "16:cjc020_6194"
    INDEX 01 00:44:34
  TRACK 55 AUDIO
    TITLE "0:"
    INDEX 01 00:45:51
  TRACK 56 AUDIO
    TITLE "17:cjc020_6195"
    INDEX 01 00:46:33
  TRACK 57 AUDIO
    TITLE "0:"
    INDEX 01 00:47:38
  TRACK 58 AUDIO
    TITLE "16:cjc020_6196"
    INDEX 01 00:47:40
  TRACK 59 AUDIO
    TITLE "0:"
    INDEX 01 00:48:53
  TRACK 60 AUDIO
    TITLE "17:cjc020_6197"
    INDEX 01 00:49:41
  TRACK 61 AUDIO
    TITLE "0:"
    INDEX 01 00:50:46
  TRACK 62 AUDIO
    TITLE "16:cjc020_6198"
    INDEX 01 00:50:50
  TRACK 63 AUDIO
    TITLE "0:"
    INDEX 01 00:51:54
